<?xml version="1.0" standalone="no"?>
<svg xmlns="http://www.w3.org/2000/svg" width="2000" height="2000" viewBox="0 0 2000 2000"><defs><clipPath id="clip-path-dot-color"><rect x="101" y="597" width="62" height="62" transform="rotate(0,132,628)"/><rect x="101" y="659" width="62" height="62" transform="rotate(0,132,690)"/><rect x="101" y="783" width="62" height="62" transform="rotate(0,132,814)"/><rect x="101" y="845" width="62" height="62" transform="rotate(0,132,876)"/><rect x="101" y="1031" width="62" height="62" transform="rotate(0,132,1062)"/><rect x="101" y="1093" width="62" height="62" transform="rotate(0,132,1124)"/><rect x="101" y="1217" width="62" height="62" transform="rotate(0,132,1248)"/><rect x="163" y="597" width="62" height="62" transform="rotate(0,194,628)"/><rect x="163" y="659" width="62" height="62" transform="rotate(0,194,690)"/><rect x="163" y="783" width="62" height="62" transform="rotate(0,194,814)"/><rect x="163" y="907" width="62" height="62" transform="rotate(0,194,938)"/><rect x="163" y="969" width="62" height="62" transform="rotate(0,194,1000)"/><rect x="163" y="1031" width="62" height="62" transform="rotate(0,194,1062)"/><rect x="163" y="1217" width="62" height="62" transform="rotate(0,194,1248)"/><rect x="225" y="597" width="62" height="62" transform="rotate(0,256,628)"/><rect x="225" y="659" width="62" height="62" transform="rotate(0,256,690)"/><rect x="225" y="845" width="62" height="62" transform="rotate(0,256,876)"/><rect x="225" y="907" width="62" height="62" transform="rotate(0,256,938)"/><rect x="225" y="1031" width="62" height="62" transform="rotate(0,256,1062)"/><rect x="225" y="1217" width="62" height="62" transform="rotate(0,256,1248)"/><rect x="225" y="1279" width="62" height="62" transform="rotate(0,256,1310)"/><rect x="287" y="597" width="62" height="62" transform="rotate(0,318,628)"/><rect x="287" y="721" width="62" height="62" transform="rotate(0,318,752)"/><rect x="287" y="783" width="62" height="62" transform="rotate(0,318,814)"/><rect x="287" y="845" width="62" height="62" transform="rotate(0,318,876)"/><rect x="287" y="907" width="62" height="62" transform="rotate(0,318,938)"/><rect x="287" y="969" width="62" height="62" transform="rotate(0,318,1000)"/><rect x="287" y="1217" width="62" height="62" transform="rotate(0,318,1248)"/><rect x="349" y="597" width="62" height="62" transform="rotate(0,380,628)"/><rect x="349" y="659" width="62" height="62" transform="rotate(0,380,690)"/><rect x="349" y="783" width="62" height="62" transform="rotate(0,380,814)"/><rect x="349" y="907" width="62" height="62" transform="rotate(0,380,938)"/><rect x="349" y="969" width="62" height="62" transform="rotate(0,380,1000)"/><rect x="349" y="1093" width="62" height="62" transform="rotate(0,380,1124)"/><rect x="349" y="1279" width="62" height="62" transform="rotate(0,380,1310)"/><rect x="411" y="907" width="62" height="62" transform="rotate(0,442,938)"/><rect x="411" y="1031" width="62" height="62" transform="rotate(0,442,1062)"/><rect x="411" y="1155" width="62" height="62" transform="rotate(0,442,1186)"/><rect x="411" y="1279" width="62" height="62" transform="rotate(0,442,1310)"/><rect x="473" y="597" width="62" height="62" transform="rotate(0,504,628)"/><rect x="473" y="721" width="62" height="62" transform="rotate(0,504,752)"/><rect x="473" y="845" width="62" height="62" transform="rotate(0,504,876)"/><rect x="473" y="969" width="62" height="62" transform="rotate(0,504,1000)"/><rect x="473" y="1093" width="62" height="62" transform="rotate(0,504,1124)"/><rect x="473" y="1217" width="62" height="62" transform="rotate(0,504,1248)"/><rect x="473" y="1341" width="62" height="62" transform="rotate(0,504,1372)"/><rect x="535" y="597" width="62" height="62" transform="rotate(0,566,628)"/><rect x="535" y="783" width="62" height="62" transform="rotate(0,566,814)"/><rect x="535" y="907" width="62" height="62" transform="rotate(0,566,938)"/><rect x="535" y="1093" width="62" height="62" transform="rotate(0,566,1124)"/><rect x="535" y="1155" width="62" height="62" transform="rotate(0,566,1186)"/><rect x="535" y="1217" width="62" height="62" transform="rotate(0,566,1248)"/><rect x="597" y="163" width="62" height="62" transform="rotate(0,628,194)"/><rect x="597" y="225" width="62" height="62" transform="rotate(0,628,256)"/><rect x="597" y="349" width="62" height="62" transform="rotate(0,628,380)"/><rect x="597" y="473" width="62" height="62" transform="rotate(0,628,504)"/><rect x="597" y="535" width="62" height="62" transform="rotate(0,628,566)"/><rect x="597" y="783" width="62" height="62" transform="rotate(0,628,814)"/><rect x="597" y="845" width="62" height="62" transform="rotate(0,628,876)"/><rect x="597" y="1031" width="62" height="62" transform="rotate(0,628,1062)"/><rect x="597" y="1093" width="62" height="62" transform="rotate(0,628,1124)"/><rect x="597" y="1217" width="62" height="62" transform="rotate(0,628,1248)"/><rect x="597" y="1341" width="62" height="62" transform="rotate(0,628,1372)"/><rect x="597" y="1465" width="62" height="62" transform="rotate(0,628,1496)"/><rect x="597" y="1589" width="62" height="62" transform="rotate(0,628,1620)"/><rect x="597" y="1651" width="62" height="62" transform="rotate(0,628,1682)"/><rect x="597" y="1713" width="62" height="62" transform="rotate(0,628,1744)"/><rect x="597" y="1775" width="62" height="62" transform="rotate(0,628,1806)"/><rect x="597" y="1837" width="62" height="62" transform="rotate(0,628,1868)"/><rect x="659" y="101" width="62" height="62" transform="rotate(0,690,132)"/><rect x="659" y="163" width="62" height="62" transform="rotate(0,690,194)"/><rect x="659" y="225" width="62" height="62" transform="rotate(0,690,256)"/><rect x="659" y="287" width="62" height="62" transform="rotate(0,690,318)"/><rect x="659" y="349" width="62" height="62" transform="rotate(0,690,380)"/><rect x="659" y="411" width="62" height="62" transform="rotate(0,690,442)"/><rect x="659" y="597" width="62" height="62" transform="rotate(0,690,628)"/><rect x="659" y="783" width="62" height="62" transform="rotate(0,690,814)"/><rect x="659" y="1031" width="62" height="62" transform="rotate(0,690,1062)"/><rect x="659" y="1093" width="62" height="62" transform="rotate(0,690,1124)"/><rect x="659" y="1217" width="62" height="62" transform="rotate(0,690,1248)"/><rect x="659" y="1279" width="62" height="62" transform="rotate(0,690,1310)"/><rect x="659" y="1465" width="62" height="62" transform="rotate(0,690,1496)"/><rect x="659" y="1527" width="62" height="62" transform="rotate(0,690,1558)"/><rect x="659" y="1837" width="62" height="62" transform="rotate(0,690,1868)"/><rect x="721" y="411" width="62" height="62" transform="rotate(0,752,442)"/><rect x="721" y="473" width="62" height="62" transform="rotate(0,752,504)"/><rect x="721" y="659" width="62" height="62" transform="rotate(0,752,690)"/><rect x="721" y="1341" width="62" height="62" transform="rotate(0,752,1372)"/><rect x="721" y="1589" width="62" height="62" transform="rotate(0,752,1620)"/><rect x="721" y="1651" width="62" height="62" transform="rotate(0,752,1682)"/><rect x="721" y="1775" width="62" height="62" transform="rotate(0,752,1806)"/><rect x="721" y="1837" width="62" height="62" transform="rotate(0,752,1868)"/><rect x="783" y="101" width="62" height="62" transform="rotate(0,814,132)"/><rect x="783" y="225" width="62" height="62" transform="rotate(0,814,256)"/><rect x="783" y="287" width="62" height="62" transform="rotate(0,814,318)"/><rect x="783" y="349" width="62" height="62" transform="rotate(0,814,380)"/><rect x="783" y="597" width="62" height="62" transform="rotate(0,814,628)"/><rect x="783" y="659" width="62" height="62" transform="rotate(0,814,690)"/><rect x="783" y="1279" width="62" height="62" transform="rotate(0,814,1310)"/><rect x="783" y="1341" width="62" height="62" transform="rotate(0,814,1372)"/><rect x="783" y="1403" width="62" height="62" transform="rotate(0,814,1434)"/><rect x="783" y="1465" width="62" height="62" transform="rotate(0,814,1496)"/><rect x="783" y="1527" width="62" height="62" transform="rotate(0,814,1558)"/><rect x="783" y="1589" width="62" height="62" transform="rotate(0,814,1620)"/><rect x="783" y="1775" width="62" height="62" transform="rotate(0,814,1806)"/><rect x="845" y="225" width="62" height="62" transform="rotate(0,876,256)"/><rect x="845" y="473" width="62" height="62" transform="rotate(0,876,504)"/><rect x="845" y="597" width="62" height="62" transform="rotate(0,876,628)"/><rect x="845" y="1465" width="62" height="62" transform="rotate(0,876,1496)"/><rect x="845" y="1527" width="62" height="62" transform="rotate(0,876,1558)"/><rect x="845" y="1713" width="62" height="62" transform="rotate(0,876,1744)"/><rect x="907" y="101" width="62" height="62" transform="rotate(0,938,132)"/><rect x="907" y="287" width="62" height="62" transform="rotate(0,938,318)"/><rect x="907" y="349" width="62" height="62" transform="rotate(0,938,380)"/><rect x="907" y="535" width="62" height="62" transform="rotate(0,938,566)"/><rect x="907" y="1341" width="62" height="62" transform="rotate(0,938,1372)"/><rect x="907" y="1403" width="62" height="62" transform="rotate(0,938,1434)"/><rect x="907" y="1465" width="62" height="62" transform="rotate(0,938,1496)"/><rect x="907" y="1527" width="62" height="62" transform="rotate(0,938,1558)"/><rect x="907" y="1837" width="62" height="62" transform="rotate(0,938,1868)"/><rect x="969" y="163" width="62" height="62" transform="rotate(0,1000,194)"/><rect x="969" y="225" width="62" height="62" transform="rotate(0,1000,256)"/><rect x="969" y="349" width="62" height="62" transform="rotate(0,1000,380)"/><rect x="969" y="473" width="62" height="62" transform="rotate(0,1000,504)"/><rect x="969" y="535" width="62" height="62" transform="rotate(0,1000,566)"/><rect x="969" y="597" width="62" height="62" transform="rotate(0,1000,628)"/><rect x="969" y="659" width="62" height="62" transform="rotate(0,1000,690)"/><rect x="969" y="1465" width="62" height="62" transform="rotate(0,1000,1496)"/><rect x="969" y="1527" width="62" height="62" transform="rotate(0,1000,1558)"/><rect x="969" y="1713" width="62" height="62" transform="rotate(0,1000,1744)"/><rect x="969" y="1775" width="62" height="62" transform="rotate(0,1000,1806)"/><rect x="969" y="1837" width="62" height="62" transform="rotate(0,1000,1868)"/><rect x="1031" y="101" width="62" height="62" transform="rotate(0,1062,132)"/><rect x="1031" y="163" width="62" height="62" transform="rotate(0,1062,194)"/><rect x="1031" y="349" width="62" height="62" transform="rotate(0,1062,380)"/><rect x="1031" y="411" width="62" height="62" transform="rotate(0,1062,442)"/><rect x="1031" y="1279" width="62" height="62" transform="rotate(0,1062,1310)"/><rect x="1031" y="1527" width="62" height="62" transform="rotate(0,1062,1558)"/><rect x="1031" y="1775" width="62" height="62" transform="rotate(0,1062,1806)"/><rect x="1093" y="101" width="62" height="62" transform="rotate(0,1124,132)"/><rect x="1093" y="163" width="62" height="62" transform="rotate(0,1124,194)"/><rect x="1093" y="225" width="62" height="62" transform="rotate(0,1124,256)"/><rect x="1093" y="287" width="62" height="62" transform="rotate(0,1124,318)"/><rect x="1093" y="473" width="62" height="62" transform="rotate(0,1124,504)"/><rect x="1093" y="659" width="62" height="62" transform="rotate(0,1124,690)"/><rect x="1093" y="1341" width="62" height="62" transform="rotate(0,1124,1372)"/><rect x="1093" y="1403" width="62" height="62" transform="rotate(0,1124,1434)"/><rect x="1093" y="1465" width="62" height="62" transform="rotate(0,1124,1496)"/><rect x="1093" y="1527" width="62" height="62" transform="rotate(0,1124,1558)"/><rect x="1093" y="1651" width="62" height="62" transform="rotate(0,1124,1682)"/><rect x="1093" y="1775" width="62" height="62" transform="rotate(0,1124,1806)"/><rect x="1155" y="163" width="62" height="62" transform="rotate(0,1186,194)"/><rect x="1155" y="659" width="62" height="62" transform="rotate(0,1186,690)"/><rect x="1155" y="1341" width="62" height="62" transform="rotate(0,1186,1372)"/><rect x="1155" y="1651" width="62" height="62" transform="rotate(0,1186,1682)"/><rect x="1155" y="1713" width="62" height="62" transform="rotate(0,1186,1744)"/><rect x="1155" y="1775" width="62" height="62" transform="rotate(0,1186,1806)"/><rect x="1155" y="1837" width="62" height="62" transform="rotate(0,1186,1868)"/><rect x="1217" y="101" width="62" height="62" transform="rotate(0,1248,132)"/><rect x="1217" y="349" width="62" height="62" transform="rotate(0,1248,380)"/><rect x="1217" y="473" width="62" height="62" transform="rotate(0,1248,504)"/><rect x="1217" y="535" width="62" height="62" transform="rotate(0,1248,566)"/><rect x="1217" y="597" width="62" height="62" transform="rotate(0,1248,628)"/><rect x="1217" y="1403" width="62" height="62" transform="rotate(0,1248,1434)"/><rect x="1217" y="1527" width="62" height="62" transform="rotate(0,1248,1558)"/><rect x="1217" y="1775" width="62" height="62" transform="rotate(0,1248,1806)"/><rect x="1217" y="1837" width="62" height="62" transform="rotate(0,1248,1868)"/><rect x="1279" y="163" width="62" height="62" transform="rotate(0,1310,194)"/><rect x="1279" y="535" width="62" height="62" transform="rotate(0,1310,566)"/><rect x="1279" y="597" width="62" height="62" transform="rotate(0,1310,628)"/><rect x="1279" y="783" width="62" height="62" transform="rotate(0,1310,814)"/><rect x="1279" y="969" width="62" height="62" transform="rotate(0,1310,1000)"/><rect x="1279" y="1031" width="62" height="62" transform="rotate(0,1310,1062)"/><rect x="1279" y="1155" width="62" height="62" transform="rotate(0,1310,1186)"/><rect x="1279" y="1465" width="62" height="62" transform="rotate(0,1310,1496)"/><rect x="1279" y="1527" width="62" height="62" transform="rotate(0,1310,1558)"/><rect x="1279" y="1651" width="62" height="62" transform="rotate(0,1310,1682)"/><rect x="1279" y="1775" width="62" height="62" transform="rotate(0,1310,1806)"/><rect x="1279" y="1837" width="62" height="62" transform="rotate(0,1310,1868)"/><rect x="1341" y="101" width="62" height="62" transform="rotate(0,1372,132)"/><rect x="1341" y="225" width="62" height="62" transform="rotate(0,1372,256)"/><rect x="1341" y="473" width="62" height="62" transform="rotate(0,1372,504)"/><rect x="1341" y="597" width="62" height="62" transform="rotate(0,1372,628)"/><rect x="1341" y="721" width="62" height="62" transform="rotate(0,1372,752)"/><rect x="1341" y="845" width="62" height="62" transform="rotate(0,1372,876)"/><rect x="1341" y="1093" width="62" height="62" transform="rotate(0,1372,1124)"/><rect x="1341" y="1155" width="62" height="62" transform="rotate(0,1372,1186)"/><rect x="1341" y="1341" width="62" height="62" transform="rotate(0,1372,1372)"/><rect x="1341" y="1403" width="62" height="62" transform="rotate(0,1372,1434)"/><rect x="1341" y="1465" width="62" height="62" transform="rotate(0,1372,1496)"/><rect x="1341" y="1527" width="62" height="62" transform="rotate(0,1372,1558)"/><rect x="1341" y="1589" width="62" height="62" transform="rotate(0,1372,1620)"/><rect x="1341" y="1651" width="62" height="62" transform="rotate(0,1372,1682)"/><rect x="1403" y="597" width="62" height="62" transform="rotate(0,1434,628)"/><rect x="1403" y="845" width="62" height="62" transform="rotate(0,1434,876)"/><rect x="1403" y="969" width="62" height="62" transform="rotate(0,1434,1000)"/><rect x="1403" y="1155" width="62" height="62" transform="rotate(0,1434,1186)"/><rect x="1403" y="1341" width="62" height="62" transform="rotate(0,1434,1372)"/><rect x="1403" y="1589" width="62" height="62" transform="rotate(0,1434,1620)"/><rect x="1403" y="1775" width="62" height="62" transform="rotate(0,1434,1806)"/><rect x="1465" y="597" width="62" height="62" transform="rotate(0,1496,628)"/><rect x="1465" y="1217" width="62" height="62" transform="rotate(0,1496,1248)"/><rect x="1465" y="1279" width="62" height="62" transform="rotate(0,1496,1310)"/><rect x="1465" y="1341" width="62" height="62" transform="rotate(0,1496,1372)"/><rect x="1465" y="1465" width="62" height="62" transform="rotate(0,1496,1496)"/><rect x="1465" y="1589" width="62" height="62" transform="rotate(0,1496,1620)"/><rect x="1465" y="1713" width="62" height="62" transform="rotate(0,1496,1744)"/><rect x="1465" y="1775" width="62" height="62" transform="rotate(0,1496,1806)"/><rect x="1465" y="1837" width="62" height="62" transform="rotate(0,1496,1868)"/><rect x="1527" y="659" width="62" height="62" transform="rotate(0,1558,690)"/><rect x="1527" y="969" width="62" height="62" transform="rotate(0,1558,1000)"/><rect x="1527" y="1093" width="62" height="62" transform="rotate(0,1558,1124)"/><rect x="1527" y="1155" width="62" height="62" transform="rotate(0,1558,1186)"/><rect x="1527" y="1217" width="62" height="62" transform="rotate(0,1558,1248)"/><rect x="1527" y="1341" width="62" height="62" transform="rotate(0,1558,1372)"/><rect x="1527" y="1589" width="62" height="62" transform="rotate(0,1558,1620)"/><rect x="1527" y="1837" width="62" height="62" transform="rotate(0,1558,1868)"/><rect x="1589" y="597" width="62" height="62" transform="rotate(0,1620,628)"/><rect x="1589" y="659" width="62" height="62" transform="rotate(0,1620,690)"/><rect x="1589" y="721" width="62" height="62" transform="rotate(0,1620,752)"/><rect x="1589" y="783" width="62" height="62" transform="rotate(0,1620,814)"/><rect x="1589" y="845" width="62" height="62" transform="rotate(0,1620,876)"/><rect x="1589" y="969" width="62" height="62" transform="rotate(0,1620,1000)"/><rect x="1589" y="1031" width="62" height="62" transform="rotate(0,1620,1062)"/><rect x="1589" y="1093" width="62" height="62" transform="rotate(0,1620,1124)"/><rect x="1589" y="1217" width="62" height="62" transform="rotate(0,1620,1248)"/><rect x="1589" y="1341" width="62" height="62" transform="rotate(0,1620,1372)"/><rect x="1589" y="1403" width="62" height="62" transform="rotate(0,1620,1434)"/><rect x="1589" y="1465" width="62" height="62" transform="rotate(0,1620,1496)"/><rect x="1589" y="1527" width="62" height="62" transform="rotate(0,1620,1558)"/><rect x="1589" y="1589" width="62" height="62" transform="rotate(0,1620,1620)"/><rect x="1589" y="1651" width="62" height="62" transform="rotate(0,1620,1682)"/><rect x="1589" y="1775" width="62" height="62" transform="rotate(0,1620,1806)"/><rect x="1651" y="659" width="62" height="62" transform="rotate(0,1682,690)"/><rect x="1651" y="969" width="62" height="62" transform="rotate(0,1682,1000)"/><rect x="1651" y="1031" width="62" height="62" transform="rotate(0,1682,1062)"/><rect x="1651" y="1093" width="62" height="62" transform="rotate(0,1682,1124)"/><rect x="1651" y="1217" width="62" height="62" transform="rotate(0,1682,1248)"/><rect x="1651" y="1341" width="62" height="62" transform="rotate(0,1682,1372)"/><rect x="1651" y="1403" width="62" height="62" transform="rotate(0,1682,1434)"/><rect x="1651" y="1589" width="62" height="62" transform="rotate(0,1682,1620)"/><rect x="1713" y="597" width="62" height="62" transform="rotate(0,1744,628)"/><rect x="1713" y="659" width="62" height="62" transform="rotate(0,1744,690)"/><rect x="1713" y="907" width="62" height="62" transform="rotate(0,1744,938)"/><rect x="1713" y="1031" width="62" height="62" transform="rotate(0,1744,1062)"/><rect x="1713" y="1093" width="62" height="62" transform="rotate(0,1744,1124)"/><rect x="1713" y="1217" width="62" height="62" transform="rotate(0,1744,1248)"/><rect x="1713" y="1279" width="62" height="62" transform="rotate(0,1744,1310)"/><rect x="1713" y="1527" width="62" height="62" transform="rotate(0,1744,1558)"/><rect x="1713" y="1589" width="62" height="62" transform="rotate(0,1744,1620)"/><rect x="1713" y="1713" width="62" height="62" transform="rotate(0,1744,1744)"/><rect x="1713" y="1837" width="62" height="62" transform="rotate(0,1744,1868)"/><rect x="1775" y="597" width="62" height="62" transform="rotate(0,1806,628)"/><rect x="1775" y="659" width="62" height="62" transform="rotate(0,1806,690)"/><rect x="1775" y="721" width="62" height="62" transform="rotate(0,1806,752)"/><rect x="1775" y="783" width="62" height="62" transform="rotate(0,1806,814)"/><rect x="1775" y="845" width="62" height="62" transform="rotate(0,1806,876)"/><rect x="1775" y="907" width="62" height="62" transform="rotate(0,1806,938)"/><rect x="1775" y="969" width="62" height="62" transform="rotate(0,1806,1000)"/><rect x="1775" y="1093" width="62" height="62" transform="rotate(0,1806,1124)"/><rect x="1775" y="1155" width="62" height="62" transform="rotate(0,1806,1186)"/><rect x="1775" y="1217" width="62" height="62" transform="rotate(0,1806,1248)"/><rect x="1775" y="1403" width="62" height="62" transform="rotate(0,1806,1434)"/><rect x="1775" y="1527" width="62" height="62" transform="rotate(0,1806,1558)"/><rect x="1775" y="1775" width="62" height="62" transform="rotate(0,1806,1806)"/><rect x="1837" y="659" width="62" height="62" transform="rotate(0,1868,690)"/><rect x="1837" y="721" width="62" height="62" transform="rotate(0,1868,752)"/><rect x="1837" y="783" width="62" height="62" transform="rotate(0,1868,814)"/><rect x="1837" y="907" width="62" height="62" transform="rotate(0,1868,938)"/><rect x="1837" y="969" width="62" height="62" transform="rotate(0,1868,1000)"/><rect x="1837" y="1031" width="62" height="62" transform="rotate(0,1868,1062)"/><rect x="1837" y="1093" width="62" height="62" transform="rotate(0,1868,1124)"/><rect x="1837" y="1155" width="62" height="62" transform="rotate(0,1868,1186)"/><rect x="1837" y="1279" width="62" height="62" transform="rotate(0,1868,1310)"/><rect x="1837" y="1341" width="62" height="62" transform="rotate(0,1868,1372)"/><rect x="1837" y="1589" width="62" height="62" transform="rotate(0,1868,1620)"/><rect x="1837" y="1651" width="62" height="62" transform="rotate(0,1868,1682)"/><rect x="1837" y="1775" width="62" height="62" transform="rotate(0,1868,1806)"/><rect x="1837" y="1837" width="62" height="62" transform="rotate(0,1868,1868)"/></clipPath><clipPath id="clip-path-corners-square-color-0-0"><rect x="101" y="101" width="62" height="62" transform="rotate(0,132,132)"/><rect x="101" y="163" width="62" height="62" transform="rotate(0,132,194)"/><rect x="101" y="225" width="62" height="62" transform="rotate(0,132,256)"/><rect x="101" y="287" width="62" height="62" transform="rotate(0,132,318)"/><rect x="101" y="349" width="62" height="62" transform="rotate(0,132,380)"/><rect x="101" y="411" width="62" height="62" transform="rotate(0,132,442)"/><rect x="101" y="473" width="62" height="62" transform="rotate(0,132,504)"/><rect x="163" y="101" width="62" height="62" transform="rotate(0,194,132)"/><rect x="163" y="473" width="62" height="62" transform="rotate(0,194,504)"/><rect x="225" y="101" width="62" height="62" transform="rotate(0,256,132)"/><rect x="225" y="473" width="62" height="62" transform="rotate(0,256,504)"/><rect x="287" y="101" width="62" height="62" transform="rotate(0,318,132)"/><rect x="287" y="473" width="62" height="62" transform="rotate(0,318,504)"/><rect x="349" y="101" width="62" height="62" transform="rotate(0,380,132)"/><rect x="349" y="473" width="62" height="62" transform="rotate(0,380,504)"/><rect x="411" y="101" width="62" height="62" transform="rotate(0,442,132)"/><rect x="411" y="473" width="62" height="62" transform="rotate(0,442,504)"/><rect x="473" y="101" width="62" height="62" transform="rotate(0,504,132)"/><rect x="473" y="163" width="62" height="62" transform="rotate(0,504,194)"/><rect x="473" y="225" width="62" height="62" transform="rotate(0,504,256)"/><rect x="473" y="287" width="62" height="62" transform="rotate(0,504,318)"/><rect x="473" y="349" width="62" height="62" transform="rotate(0,504,380)"/><rect x="473" y="411" width="62" height="62" transform="rotate(0,504,442)"/><rect x="473" y="473" width="62" height="62" transform="rotate(0,504,504)"/></clipPath><clipPath id="clip-path-corners-dot-color-0-0"><rect x="225" y="225" width="62" height="62" transform="rotate(0,256,256)"/><rect x="225" y="287" width="62" height="62" transform="rotate(0,256,318)"/><rect x="225" y="349" width="62" height="62" transform="rotate(0,256,380)"/><rect x="287" y="225" width="62" height="62" transform="rotate(0,318,256)"/><rect x="287" y="287" width="62" height="62" transform="rotate(0,318,318)"/><rect x="287" y="349" width="62" height="62" transform="rotate(0,318,380)"/><rect x="349" y="225" width="62" height="62" transform="rotate(0,380,256)"/><rect x="349" y="287" width="62" height="62" transform="rotate(0,380,318)"/><rect x="349" y="349" width="62" height="62" transform="rotate(0,380,380)"/></clipPath><clipPath id="clip-path-corners-square-color-1-0"><rect x="1465" y="101" width="62" height="62" transform="rotate(0,1496,132)"/><rect x="1465" y="163" width="62" height="62" transform="rotate(0,1496,194)"/><rect x="1465" y="225" width="62" height="62" transform="rotate(0,1496,256)"/><rect x="1465" y="287" width="62" height="62" transform="rotate(0,1496,318)"/><rect x="1465" y="349" width="62" height="62" transform="rotate(0,1496,380)"/><rect x="1465" y="411" width="62" height="62" transform="rotate(0,1496,442)"/><rect x="1465" y="473" width="62" height="62" transform="rotate(0,1496,504)"/><rect x="1527" y="101" width="62" height="62" transform="rotate(0,1558,132)"/><rect x="1527" y="473" width="62" height="62" transform="rotate(0,1558,504)"/><rect x="1589" y="101" width="62" height="62" transform="rotate(0,1620,132)"/><rect x="1589" y="473" width="62" height="62" transform="rotate(0,1620,504)"/><rect x="1651" y="101" width="62" height="62" transform="rotate(0,1682,132)"/><rect x="1651" y="473" width="62" height="62" transform="rotate(0,1682,504)"/><rect x="1713" y="101" width="62" height="62" transform="rotate(0,1744,132)"/><rect x="1713" y="473" width="62" height="62" transform="rotate(0,1744,504)"/><rect x="1775" y="101" width="62" height="62" transform="rotate(0,1806,132)"/><rect x="1775" y="473" width="62" height="62" transform="rotate(0,1806,504)"/><rect x="1837" y="101" width="62" height="62" transform="rotate(0,1868,132)"/><rect x="1837" y="163" width="62" height="62" transform="rotate(0,1868,194)"/><rect x="1837" y="225" width="62" height="62" transform="rotate(0,1868,256)"/><rect x="1837" y="287" width="62" height="62" transform="rotate(0,1868,318)"/><rect x="1837" y="349" width="62" height="62" transform="rotate(0,1868,380)"/><rect x="1837" y="411" width="62" height="62" transform="rotate(0,1868,442)"/><rect x="1837" y="473" width="62" height="62" transform="rotate(0,1868,504)"/></clipPath><clipPath id="clip-path-corners-dot-color-1-0"><rect x="1589" y="225" width="62" height="62" transform="rotate(0,1620,256)"/><rect x="1589" y="287" width="62" height="62" transform="rotate(0,1620,318)"/><rect x="1589" y="349" width="62" height="62" transform="rotate(0,1620,380)"/><rect x="1651" y="225" width="62" height="62" transform="rotate(0,1682,256)"/><rect x="1651" y="287" width="62" height="62" transform="rotate(0,1682,318)"/><rect x="1651" y="349" width="62" height="62" transform="rotate(0,1682,380)"/><rect x="1713" y="225" width="62" height="62" transform="rotate(0,1744,256)"/><rect x="1713" y="287" width="62" height="62" transform="rotate(0,1744,318)"/><rect x="1713" y="349" width="62" height="62" transform="rotate(0,1744,380)"/></clipPath><clipPath id="clip-path-corners-square-color-0-1"><rect x="101" y="1465" width="62" height="62" transform="rotate(0,132,1496)"/><rect x="101" y="1527" width="62" height="62" transform="rotate(0,132,1558)"/><rect x="101" y="1589" width="62" height="62" transform="rotate(0,132,1620)"/><rect x="101" y="1651" width="62" height="62" transform="rotate(0,132,1682)"/><rect x="101" y="1713" width="62" height="62" transform="rotate(0,132,1744)"/><rect x="101" y="1775" width="62" height="62" transform="rotate(0,132,1806)"/><rect x="101" y="1837" width="62" height="62" transform="rotate(0,132,1868)"/><rect x="163" y="1465" width="62" height="62" transform="rotate(0,194,1496)"/><rect x="163" y="1837" width="62" height="62" transform="rotate(0,194,1868)"/><rect x="225" y="1465" width="62" height="62" transform="rotate(0,256,1496)"/><rect x="225" y="1837" width="62" height="62" transform="rotate(0,256,1868)"/><rect x="287" y="1465" width="62" height="62" transform="rotate(0,318,1496)"/><rect x="287" y="1837" width="62" height="62" transform="rotate(0,318,1868)"/><rect x="349" y="1465" width="62" height="62" transform="rotate(0,380,1496)"/><rect x="349" y="1837" width="62" height="62" transform="rotate(0,380,1868)"/><rect x="411" y="1465" width="62" height="62" transform="rotate(0,442,1496)"/><rect x="411" y="1837" width="62" height="62" transform="rotate(0,442,1868)"/><rect x="473" y="1465" width="62" height="62" transform="rotate(0,504,1496)"/><rect x="473" y="1527" width="62" height="62" transform="rotate(0,504,1558)"/><rect x="473" y="1589" width="62" height="62" transform="rotate(0,504,1620)"/><rect x="473" y="1651" width="62" height="62" transform="rotate(0,504,1682)"/><rect x="473" y="1713" width="62" height="62" transform="rotate(0,504,1744)"/><rect x="473" y="1775" width="62" height="62" transform="rotate(0,504,1806)"/><rect x="473" y="1837" width="62" height="62" transform="rotate(0,504,1868)"/></clipPath><clipPath id="clip-path-corners-dot-color-0-1"><rect x="225" y="1589" width="62" height="62" transform="rotate(0,256,1620)"/><rect x="225" y="1651" width="62" height="62" transform="rotate(0,256,1682)"/><rect x="225" y="1713" width="62" height="62" transform="rotate(0,256,1744)"/><rect x="287" y="1589" width="62" height="62" transform="rotate(0,318,1620)"/><rect x="287" y="1651" width="62" height="62" transform="rotate(0,318,1682)"/><rect x="287" y="1713" width="62" height="62" transform="rotate(0,318,1744)"/><rect x="349" y="1589" width="62" height="62" transform="rotate(0,380,1620)"/><rect x="349" y="1651" width="62" height="62" transform="rotate(0,380,1682)"/><rect x="349" y="1713" width="62" height="62" transform="rotate(0,380,1744)"/></clipPath></defs><rect x="0" y="0" height="2000" width="2000" clip-path="url('#clip-path-background-color')" fill="#ffffff"/><rect x="101" y="101" height="1798" width="1798" clip-path="url('#clip-path-dot-color')" fill="#000000"/><rect x="101" y="101" height="434" width="434" clip-path="url('#clip-path-corners-square-color-0-0')" fill="#000000"/><rect x="225" y="225" height="186" width="186" clip-path="url('#clip-path-corners-dot-color-0-0')" fill="#000000"/><rect x="1465" y="101" height="434" width="434" clip-path="url('#clip-path-corners-square-color-1-0')" fill="#000000"/><rect x="1589" y="225" height="186" width="186" clip-path="url('#clip-path-corners-dot-color-1-0')" fill="#000000"/><rect x="101" y="1465" height="434" width="434" clip-path="url('#clip-path-corners-square-color-0-1')" fill="#000000"/><rect x="225" y="1589" height="186" width="186" clip-path="url('#clip-path-corners-dot-color-0-1')" fill="#000000"/><svg xml:space="preserve" viewBox="0 0 20 20" height="557px" width="558px" y="721.5" x="721" xmlns:xlink="http://www.w3.org/1999/xlink" xmlns="http://www.w3.org/2000/svg" version="1.1">
        <path d="M19.4,4.1l-9-4C10.1,0,9.9,0,9.6,0.1l-9,4C0.2,4.2,0,4.6,0,5s0.2,0.8,0.6,0.9l9,4C9.7,10,9.9,10,10,10s0.3,0,0.4-0.1l9-4&#10;          C19.8,5.8,20,5.4,20,5S19.8,4.2,19.4,4.1z" fill="#78a6f0"/>
        <path d="M10,15c-0.1,0-0.3,0-0.4-0.1l-9-4c-0.5-0.2-0.7-0.8-0.5-1.3c0.2-0.5,0.8-0.7,1.3-0.5l8.6,3.8l8.6-3.8c0.5-0.2,1.1,0,1.3,0.5&#10;          c0.2,0.5,0,1.1-0.5,1.3l-9,4C10.3,15,10.1,15,10,15z" fill="#3f80ea"/>
        <path d="M10,20c-0.1,0-0.3,0-0.4-0.1l-9-4c-0.5-0.2-0.7-0.8-0.5-1.3c0.2-0.5,0.8-0.7,1.3-0.5l8.6,3.8l8.6-3.8c0.5-0.2,1.1,0,1.3,0.5&#10;          c0.2,0.5,0,1.1-0.5,1.3l-9,4C10.3,20,10.1,20,10,20z" fill="#3f80ea"/>
      </svg></svg>